<?xml version="1.0" standalone="no"?>
<!DOCTYPE svg PUBLIC "-//W3C//DTD SVG 20010904//EN"
 "http://www.w3.org/TR/2001/REC-SVG-20010904/DTD/svg10.dtd">
<svg version="1.0" xmlns="http://www.w3.org/2000/svg"
 width="1702.000000pt" height="1702.000000pt" viewBox="0 0 1702.000000 1702.000000"
 preserveAspectRatio="xMidYMid meet">
<metadata>
Created by potrace 1.11, written by Peter Selinger 2001-2013
</metadata>
<g transform="translate(0.000000,1702.000000) scale(0.100000,-0.100000)"
fill="#000000" stroke="none">
<path d="M8340 17013 c-36 -2 -132 -10 -215 -18 -990 -103 -1910 -640 -2536
-1480 -411 -552 -686 -1234 -778 -1930 -33 -248 -34 -318 -35 -1910 l-1 -1600
-145 -6 c-80 -4 -174 -12 -208 -18 -223 -42 -419 -146 -583 -310 -164 -164
-258 -342 -306 -580 -17 -81 -18 -315 -18 -4121 0 -3365 2 -4047 14 -4110 86
-475 445 -832 916 -911 119 -21 8011 -21 8130 0 462 78 805 409 912 881 16 70
17 352 19 4100 2 4366 5 4105 -52 4290 -54 175 -137 312 -269 446 -226 229
-492 334 -847 334 l-127 0 -4 1638 c-3 1147 -7 1664 -15 1727 -36 283 -63 430
-118 650 -149 595 -455 1186 -847 1640 -311 360 -670 651 -1063 862 -123 66
-417 196 -534 236 -410 142 -851 206 -1290 190z m445 -1292 c117 -20 127 -21
220 -42 205 -45 516 -172 677 -276 24 -15 54 -33 67 -40 121 -66 390 -298 542
-469 88 -98 234 -303 312 -437 186 -317 330 -744 377 -1107 6 -47 13 -101 17
-120 3 -19 8 -738 10 -1598 l4 -1562 -2518 2 -2518 3 0 1485 c1 1421 3 1618
25 1768 124 870 550 1578 1210 2016 322 214 691 347 1060 384 113 12 428 7
515 -7z"/>
</g>
</svg>
